HIERARCHY
ROOT Hips
{
    OFFSET 0.000000 0.000000 0.000000
    CHANNELS 6 Xposition Yposition Zposition Zrotation Xrotation Yrotation
    JOINT Spine
    {
        OFFSET -0.000000 14.517291 0.000000
        CHANNELS 3 Zrotation Xrotation Yrotation
        JOINT Spine1
        {
            OFFSET -0.000000 37.558300 0.000000
            CHANNELS 3 Zrotation Xrotation Yrotation
            JOINT Neck
            {
                OFFSET -0.000000 37.404057 3.400369
                CHANNELS 3 Zrotation Xrotation Yrotation
                JOINT Head
                {
                    OFFSET -0.000000 24.785618 -3.540803
                    CHANNELS 3 Zrotation Xrotation Yrotation
                    End Site
                    {
                        OFFSET -0.000000 35.408028 0.000000
                    }
                }
            }
            JOINT LeftShoulder
            {
                OFFSET 6.992933 33.973492 -0.192664
                CHANNELS 3 Zrotation Xrotation Yrotation
                JOINT LeftArm
                {
                    OFFSET 21.527611 0.000000 0.000000
                    CHANNELS 3 Zrotation Xrotation Yrotation
                    JOINT LeftForeArm
                    {
                        OFFSET 56.353916 0.000000 0.000000
                        CHANNELS 3 Zrotation Xrotation Yrotation
                        JOINT LeftHand
                        {
                            OFFSET 47.774071 0.000000 0.000000
                            CHANNELS 3 Zrotation Xrotation Yrotation
                            End Site
                            {
                                OFFSET 26.556021 0.000000 0.000000
                            }
                        }
                    }
                }
            }
            JOINT RightShoulder
            {
                OFFSET -7.065357 33.973492 -0.192664
                CHANNELS 3 Zrotation Xrotation Yrotation
                JOINT RightArm
                {
                    OFFSET -21.527611 0.000000 0.000000
                    CHANNELS 3 Zrotation Xrotation Yrotation
                    JOINT RightForeArm
                    {
                        OFFSET -56.353916 0.000000 0.000000
                        CHANNELS 3 Zrotation Xrotation Yrotation
                        JOINT RightHand
                        {
                            OFFSET -47.774071 0.000000 0.000000
                            CHANNELS 3 Zrotation Xrotation Yrotation
                            End Site
                            {
                                OFFSET -26.556021 0.000000 0.000000
                            }
                        }
                    }
                }
            }
        }
    }
    JOINT LeftUpLeg
    {
        OFFSET 17.704014 0.000000 0.000000
        CHANNELS 3 Zrotation Xrotation Yrotation
        JOINT LeftLeg
        {
            OFFSET -0.000000 -81.181816 0.000000
            CHANNELS 3 Zrotation Xrotation Yrotation
            JOINT LeftFoot
            {
                OFFSET -0.000000 -62.821102 0.000000
                CHANNELS 3 Zrotation Xrotation Yrotation
                JOINT LeftToeBase
                {
                    OFFSET -0.000000 -11.507608 26.556021
                    CHANNELS 3 Zrotation Xrotation Yrotation
                    End Site
                    {
                        OFFSET -0.000000 0.000000 7.081605
                    }
                }
            }
        }
    }
    JOINT RightUpLeg
    {
        OFFSET -17.704014 0.000000 0.000000
        CHANNELS 3 Zrotation Xrotation Yrotation
        JOINT RightLeg
        {
            OFFSET -0.000000 -81.181816 0.000000
            CHANNELS 3 Zrotation Xrotation Yrotation
            JOINT RightFoot
            {
                OFFSET -0.000000 -62.821102 0.000000
                CHANNELS 3 Zrotation Xrotation Yrotation
                JOINT RightToeBase
                {
                    OFFSET -0.000000 -11.507608 26.556021
                    CHANNELS 3 Zrotation Xrotation Yrotation
                    End Site
                    {
                        OFFSET -0.000000 0.000000 7.081605
                    }
                }
            }
        }
    }
}
MOTION
Frames:    4
Frame Time:    0.008333
16.258909    155.741196    -106.534073    0.733261    -8.770160    45.773811    -4.847815    1.487694    -3.740226    2.025541    2.358716    -1.309685    -0.484097    5.819227    -17.741669    17.648079    1.722012    -16.256111    14.646555    -5.538608    -22.339764    -1.037293    -3.881862    -37.693043    -18.886068    8.185934    -93.453087    -12.531518    -8.849019    -29.896200    -1.765109    6.449214    -4.460191    32.015217    -13.502554    49.074993    -23.799417    -12.099503    66.453308    -12.523396    -0.410061    36.428020    19.096762    -3.390288    -1.150472    -14.402483    36.877666    -18.412397    6.289589    -26.457172    42.307816    0.000000    0.000000    0.000000    -18.245981    -13.296838    -14.926654    13.542266    31.453083    -15.336805    12.091844    3.829200    -20.448355    0.000000    0.000000    0.000000    
16.247574    155.734543    -106.543518    0.743735    -8.761819    45.777596    -4.853399    1.483442    -3.727282    2.010668    2.364052    -1.305133    -0.476596    5.809797    -17.759560    17.666031    1.738736    -16.275976    14.615271    -5.497725    -22.352690    -1.073822    -3.904188    -37.727512    -18.873556    8.140366    -93.355080    -12.510697    -8.850231    -29.899439    -1.767940    6.440626    -4.469487    32.008152    -13.509278    49.065056    -23.790165    -12.096988    66.438873    -12.539678    -0.424417    36.433727    19.082426    -3.400311    -1.135435    -14.385663    36.896564    -18.422916    6.278574    -26.468809    42.295731    0.000000    0.000000    0.000000    -18.254827    -13.307243    -14.943024    13.527498    31.472305    -15.345273    12.070624    3.813812    -20.418161    0.000000    0.000000    0.000000    
16.235798    155.726166    -106.550644    0.751703    -8.759307    45.785538    -4.848438    1.475748    -3.723326    1.988471    2.381668    -1.303521    -0.473988    5.789557    -17.766766    17.684984    1.762106    -16.284975    14.551761    -5.531484    -22.433918    -1.090936    -3.838915    -37.654209    -18.887053    8.106215    -93.309029    -12.485525    -8.892072    -29.876730    -1.772694    6.440489    -4.482240    32.004181    -13.494533    49.081554    -23.816788    -12.119802    66.394241    -12.516640    -0.435215    36.435005    19.080387    -3.409382    -1.131713    -14.394893    36.906937    -18.408873    6.286292    -26.465076    42.280151    0.000000    0.000000    0.000000    -18.259384    -13.306685    -14.957500    13.523027    31.478176    -15.332414    12.056823    3.797107    -20.424948    0.000000    0.000000    0.000000    
16.225254    155.719696    -106.556770    0.763147    -8.761950    45.794308    -4.839644    1.478336    -3.718119    1.957722    2.387576    -1.301285    -0.460882    5.788101    -17.774004    17.698544    1.766169    -16.292843    14.524839    -5.486358    -22.443033    -1.107539    -3.832775    -37.682178    -18.905657    8.047592    -93.208138    -12.501177    -8.929280    -29.889879    -1.765365    6.429346    -4.484716    31.980619    -13.467155    49.067619    -23.828611    -12.154021    66.361206    -12.485060    -0.462848    36.446171    19.078485    -3.411138    -1.129118    -14.397639    36.917118    -18.426785    6.294352    -26.461329    42.288097    0.000000    0.000000    0.000000    -18.258417    -13.299494    -14.973632    13.501362    31.484882    -15.324382    12.057941    3.780976    -20.420799    0.000000    0.000000    0.000000    
